<svg width="1280" height="1276" xmlns="http://www.w3.org/2000/svg" preserveAspectRatio="xMidYMid meet">
 <metadata>Created by potrace 1.15, written by Peter Selinger 2001-2017</metadata>

 <g>
  <title>background</title>
  <rect fill="none" id="canvas_background" height="402" width="582" y="-1" x="-1"/>
 </g>
 <g>
  <title>Layer 1</title>
  <g id="svg_1" fill="#000000" transform="translate(0, 1276) scale(0.1, -0.1)">
   <path fill="#ffffff" id="svg_2" d="m5975,12749c-86,-6 -144,-14 -151,-22c-6,-6 -36,-95 -67,-197c-30,-102 -119,-396 -197,-655c-78,-258 -156,-516 -173,-571l-30,-102l-188,-46c-213,-52 -475,-135 -658,-208c-68,-27 -130,-47 -137,-44c-7,3 -301,221 -653,485c-353,265 -644,481 -649,481c-11,0 -250,-145 -362,-220c-206,-137 -422,-299 -608,-456l-25,-21l271,-746c150,-411 272,-752 272,-758c0,-6 -40,-56 -88,-112c-175,-202 -337,-420 -457,-615c-32,-52 -64,-96 -72,-99c-8,-3 -366,4 -796,16c-430,12 -794,21 -808,21c-23,0 -30,-9 -56,-67c-61,-137 -142,-353 -202,-538c-61,-186 -145,-494 -138,-502c2,-2 303,-204 668,-448c562,-377 665,-450 670,-473c3,-15 1,-72 -4,-127c-8,-99 -2,-525 11,-702l7,-92l-668,-448c-368,-246 -673,-450 -678,-453c-9,-6 22,-146 72,-320c71,-249 180,-554 284,-794l17,-39l141,6c78,4 443,14 810,24l668,17l25,-29c13,-17 68,-95 120,-174c113,-169 222,-314 350,-467l93,-111l-275,-752c-151,-414 -274,-757 -272,-761c5,-14 213,-185 361,-296c225,-170 606,-418 631,-412c7,2 299,219 649,482l637,479l47,-15c27,-9 84,-30 128,-48c183,-74 392,-141 619,-200c81,-21 149,-40 151,-42c3,-3 222,-724 386,-1273c38,-126 73,-239 78,-251c8,-18 24,-22 137,-33c314,-30 1078,-22 1110,12c6,7 36,95 67,197c30,102 119,396 197,655c78,259 156,516 173,571l30,102l188,46c213,52 475,135 658,208c68,27 130,47 137,44c7,-3 301,-221 653,-485c353,-265 644,-481 649,-481c11,0 250,145 362,220c206,137 422,299 608,456l25,21l-271,746c-150,411 -272,752 -272,758c0,6 40,56 88,112c175,202 337,420 457,615c32,52 64,96 72,99c8,3 366,-4 796,-16c430,-12 794,-21 808,-21c23,0 30,9 56,68c61,136 142,352 202,537c61,186 145,494 138,502c-2,2 -303,204 -668,448c-562,377 -665,450 -670,473c-3,15 -1,72 4,127c8,99 2,527 -11,702l-7,92l668,448c368,246 673,450 678,453c9,6 -22,146 -72,320c-71,249 -180,554 -284,794l-17,39l-141,-6c-78,-4 -443,-14 -810,-24l-668,-17l-25,29c-13,17 -68,95 -120,174c-113,169 -222,314 -350,467l-93,111l275,752c151,414 274,757 272,761c-5,14 -213,185 -361,296c-225,170 -606,418 -631,412c-7,-2 -299,-219 -649,-482l-637,-479l-47,15c-27,9 -84,30 -128,48c-183,74 -392,141 -619,200c-81,21 -149,40 -151,42c-3,3 -222,724 -386,1273c-38,127 -73,239 -78,251c-8,18 -24,22 -137,33c-164,16 -775,22 -959,10zm2253,-2919c73,-39 115,-83 151,-160c22,-46 26,-69 26,-140c0,-73 -4,-93 -28,-142c-32,-65 -95,-125 -165,-159c-70,-34 -198,-38 -274,-9c-259,97 -294,456 -58,598c76,45 102,52 200,49c74,-3 93,-7 148,-37zm-1586,-1425c407,-47 749,-184 1073,-428c176,-133 407,-392 514,-575c177,-306 264,-594 291,-969c10,-128 9,-170 -5,-270c-45,-333 -152,-618 -334,-890c-437,-654 -1225,-1012 -2023,-918c-407,47 -749,184 -1073,428c-176,133 -407,392 -514,575c-177,306 -264,594 -291,969c-10,128 -9,170 5,270c33,241 90,435 190,639c274,563 772,963 1390,1119c244,62 523,80 777,50zm-3348,-134c182,-89 246,-300 143,-472c-62,-103 -173,-163 -302,-162c-193,2 -335,144 -337,338c-3,248 268,409 496,296zm6489,-3167c131,-46 218,-173 219,-321c1,-62 -4,-82 -31,-137c-37,-75 -92,-128 -170,-164c-81,-38 -202,-38 -282,-1c-79,37 -133,90 -171,167c-29,58 -33,77 -33,143c0,65 5,85 33,142c79,159 263,232 435,171zm-4919,-1565c73,-27 148,-96 183,-167c24,-50 28,-69 28,-147c0,-73 -4,-99 -23,-136c-34,-70 -84,-122 -154,-160c-60,-32 -68,-34 -163,-34c-95,0 -103,2 -163,34c-74,40 -116,85 -150,159c-83,182 5,385 196,454c67,24 177,23 246,-3z"/>
  </g>
 </g>
</svg>